<?xml version="1.0" standalone="no"?>
<!DOCTYPE svg PUBLIC "-//W3C//DTD SVG 20010904//EN"
 "http://www.w3.org/TR/2001/REC-SVG-20010904/DTD/svg10.dtd">
<svg version="1.0" xmlns="http://www.w3.org/2000/svg"
 width="500.000000pt" height="500.000000pt" viewBox="0 0 500.000000 500.000000"
 preserveAspectRatio="xMidYMid meet">

<g transform="translate(0.000000,500.000000) scale(0.100000,-0.100000)"
fill="#000000" stroke="none">
<path d="M3551 4172 c-41 -31 -137 -124 -212 -207 -114 -124 -142 -150 -163
-148 -28 2 -33 -6 -15 -24 24 -24 -2 -34 -34 -14 -18 10 -43 22 -57 25 -22 5
-23 5 -5 -5 27 -15 69 -68 60 -77 -3 -4 -13 1 -20 11 -7 10 -19 17 -27 16 -26
-4 -69 14 -79 33 -6 11 -13 17 -16 15 -2 -3 -30 7 -61 23 -81 40 -167 67 -237
74 -52 4 -55 4 -25 -5 19 -6 42 -17 51 -25 8 -8 23 -14 32 -14 18 0 32 -18 23
-28 -4 -3 -16 -1 -26 6 -27 16 -115 15 -132 -2 -8 -7 -34 -23 -59 -34 l-44
-21 40 5 c22 4 50 13 62 20 19 12 27 12 43 2 11 -7 20 -16 20 -20 0 -3 -24
-14 -52 -24 l-53 -17 30 -10 c29 -10 45 -23 45 -39 0 -5 -4 -8 -10 -8 -5 0
-19 -9 -30 -20 l-20 -20 38 0 c32 0 83 -18 57 -21 -5 0 15 -7 45 -15 61 -16
112 -60 88 -75 -8 -6 -9 -9 -1 -9 13 0 53 -61 53 -81 0 -10 -3 -10 -12 -1 -7
7 -17 12 -22 12 -6 0 0 -7 12 -16 13 -9 21 -22 18 -29 -7 -20 -252 -333 -294
-377 -20 -21 -39 -38 -43 -38 -7 0 -102 232 -97 234 80 36 78 35 78 71 0 41
-11 45 -34 9 -20 -30 -38 -27 -46 7 -4 15 -13 24 -25 24 -24 0 -57 85 -50 127
5 34 34 68 56 68 24 0 43 -58 26 -79 -11 -14 -10 -14 6 -2 19 15 23 61 7 77
-7 7 -4 18 10 34 11 12 17 27 13 33 -5 8 -8 7 -11 -1 -2 -7 -15 -12 -28 -12
-24 0 -25 2 -21 50 3 28 1 50 -4 50 -14 0 -11 40 4 41 6 1 -4 5 -23 9 -22 5
-40 5 -47 -2 -9 -8 -13 -7 -13 3 -1 10 -5 8 -15 -4 -13 -18 -14 -17 -30 7 -10
14 -26 26 -37 26 -13 0 -25 13 -37 43 -16 38 -17 43 -2 54 13 10 11 12 -14 10
l-30 -3 0 -69 c0 -42 5 -76 13 -86 11 -14 10 -18 -4 -23 -9 -4 -18 -5 -19 -4
-1 2 -23 68 -50 148 -26 80 -55 164 -62 188 -16 45 -33 48 -33 5 0 -14 12 -64
27 -110 25 -83 26 -86 8 -99 -24 -18 -44 -18 -51 0 -4 10 -13 12 -34 6 -30 -9
-50 3 -50 30 0 9 -6 25 -14 36 -14 18 -15 18 -45 -10 -39 -37 -46 -71 -26
-126 l16 -45 -28 -23 -28 -23 28 11 c37 13 34 14 42 -21 5 -21 2 -36 -9 -48
-9 -10 -16 -29 -16 -44 0 -18 -7 -28 -22 -33 -34 -10 -88 -48 -88 -60 0 -7 8
-15 18 -19 15 -6 14 -8 -8 -20 -34 -19 -39 -18 -32 7 3 14 2 19 -6 14 -7 -4
-12 -17 -13 -29 -1 -31 -23 -90 -36 -94 -6 -2 -13 11 -17 29 -6 30 -7 31 -23
15 -16 -15 -15 -18 1 -36 21 -24 11 -49 -33 -80 -35 -25 -85 -107 -75 -123 4
-6 3 -8 -3 -5 -6 4 -16 -7 -23 -24 -14 -32 -56 -67 -67 -55 -4 3 1 22 10 41
20 43 3 47 -21 5 -9 -16 -23 -30 -31 -30 -11 0 -10 -5 4 -20 15 -17 16 -27 8
-70 -6 -28 -6 -53 -2 -56 5 -3 2 -12 -6 -20 -8 -9 -13 -20 -9 -25 5 -8 -22
-48 -60 -89 -8 -8 -17 -32 -21 -52 -4 -21 -11 -38 -16 -38 -5 0 -9 -5 -9 -10
0 -6 6 -9 13 -8 6 2 13 -9 15 -24 2 -20 10 -28 33 -33 16 -4 29 -11 29 -17 0
-5 9 -23 21 -40 29 -40 16 -48 -22 -12 -25 24 -31 26 -39 14 -14 -22 -12 -37
6 -66 9 -13 14 -27 11 -31 -4 -3 1 -11 10 -18 20 -15 23 -73 5 -80 -8 -3 -20
2 -28 10 -9 8 -18 15 -21 15 -2 0 -3 -33 0 -72 5 -75 22 -127 45 -141 8 -6 10
-13 4 -20 -5 -7 -12 -33 -14 -58 -4 -37 -2 -50 13 -63 11 -9 19 -23 19 -32 0
-10 6 -14 14 -11 8 3 20 -1 26 -8 10 -12 7 -17 -11 -25 -18 -8 -24 -20 -26
-46 -1 -18 3 -34 8 -34 6 0 8 4 5 8 -2 4 8 7 22 6 28 -1 39 -21 27 -52 -5 -14
-7 -14 -15 -2 -5 8 -12 11 -16 7 -4 -3 -1 -13 5 -21 10 -12 10 -21 -2 -45 -13
-27 -13 -32 0 -42 11 -10 16 -10 23 0 8 14 44 8 67 -11 17 -13 17 -65 1 -71
-7 -2 -22 3 -33 12 -12 9 -15 10 -7 1 6 -8 12 -22 12 -32 0 -10 4 -18 9 -18 5
0 6 -10 3 -22 -5 -22 -4 -22 31 5 22 16 47 27 60 25 l22 -3 -22 -22 c-13 -13
-23 -32 -23 -43 0 -11 -9 -25 -20 -32 -11 -7 -20 -19 -20 -26 0 -22 -41 -73
-52 -65 -7 4 -9 0 -5 -9 3 -9 -6 -32 -19 -52 -43 -63 -74 -139 -74 -183 0 -34
-10 -57 -54 -122 -58 -87 -53 -105 13 -46 33 30 45 35 90 35 l52 0 -16 -30
c-8 -16 -20 -41 -25 -55 -9 -24 -8 -25 18 -19 15 3 49 30 79 62 55 61 77 64
50 7 -16 -34 -23 -85 -11 -85 19 0 49 30 124 125 l84 107 38 -41 c21 -22 38
-36 38 -32 0 5 11 9 25 9 20 0 24 -5 20 -18 -6 -19 19 -45 34 -35 16 9 53 -14
48 -30 -4 -9 1 -11 14 -8 17 5 21 0 18 -23 0 -4 17 -15 39 -24 21 -10 42 -25
46 -35 4 -12 13 -16 28 -12 12 4 51 -1 87 -10 l64 -16 23 28 c18 23 25 26 37
17 7 -7 17 -9 20 -6 3 3 16 -1 29 -10 l22 -16 -32 0 c-17 0 -32 -3 -32 -7 0
-8 23 -11 102 -14 21 -1 35 -5 32 -10 -3 -5 0 -9 5 -9 6 0 11 5 11 10 0 6 9
10 20 10 12 0 25 10 32 25 6 14 14 25 18 25 13 0 31 -27 28 -41 -4 -19 28 -22
61 -6 20 10 34 11 46 4 13 -7 20 -5 27 7 5 8 8 19 8 22 -4 16 26 22 41 8 14
-13 23 -13 58 -3 23 7 41 16 41 21 0 4 9 8 20 8 10 0 23 7 28 15 5 10 25 17
54 18 38 3 51 9 73 35 19 23 35 32 56 32 16 0 29 4 29 10 0 17 85 89 94 80 11
-11 56 18 56 36 0 7 12 20 28 28 30 16 89 86 72 86 -18 0 -11 28 9 35 13 4 17
12 13 27 -4 18 -2 20 21 14 23 -5 30 0 65 51 22 32 49 77 60 100 12 23 33 58
47 78 13 21 28 53 31 74 4 20 21 63 39 96 18 33 30 65 28 72 -2 6 3 22 11 35
38 58 76 334 76 555 0 138 -14 288 -29 308 -4 6 -8 26 -9 45 -6 101 -46 255
-64 244 -6 -4 -8 1 -3 15 10 32 -28 148 -86 263 l-50 99 31 30 c16 17 30 33
30 36 0 3 63 77 140 164 98 111 135 159 122 159 -18 0 -81 -38 -133 -81 -15
-12 -33 -19 -40 -17 -9 3 21 41 84 105 53 54 97 107 97 116 0 58 -70 7 -263
-194 l-156 -161 -25 19 c-14 10 -26 20 -26 23 0 9 155 185 247 281 46 47 83
93 83 101 0 9 -11 14 -34 15 -47 1 -96 29 -96 55 0 11 15 39 33 62 54 66 71
106 45 106 -7 0 -47 -26 -87 -58z m-1491 -406 c0 -23 5 -57 11 -75 9 -24 8
-35 -2 -47 -18 -22 -34 -2 -19 25 9 18 8 22 -7 28 -10 4 -21 11 -25 17 -13 19
-9 54 7 60 8 3 15 9 14 13 -3 15 1 23 11 23 6 0 10 -20 10 -44z m193 -47 c-4
-13 -9 -17 -16 -10 -12 12 -1 45 12 37 5 -3 7 -15 4 -27z m127 -39 c0 -5 -5
-10 -11 -10 -5 0 -7 5 -4 10 3 6 8 10 11 10 2 0 4 -4 4 -10z m-430 -26 c0 -16
-16 -19 -25 -4 -8 13 4 32 16 25 5 -4 9 -13 9 -21z m420 -12 c0 -10 -22 -32
-32 -32 -4 0 -8 9 -8 20 0 13 7 20 20 20 11 0 20 -4 20 -8z m-280 -22 c0 -5
-5 -10 -11 -10 -5 0 -7 5 -4 10 3 6 8 10 11 10 2 0 4 -4 4 -10z m285 -30 c-3
-5 -10 -10 -16 -10 -5 0 -9 5 -9 10 0 6 7 10 16 10 8 0 12 -4 9 -10z m1185 1
c0 -11 -42 -43 -48 -37 -2 3 1 14 8 25 11 21 40 29 40 12z m-200 -22 c0 -6 -4
-7 -10 -4 -5 3 -10 11 -10 16 0 6 5 7 10 4 6 -3 10 -11 10 -16z m-1254 -56
c-10 -10 -19 5 -10 18 6 11 8 11 12 0 2 -7 1 -15 -2 -18z m1395 9 c-5 -9 -19
-26 -30 -36 -29 -26 -28 0 1 31 25 27 43 30 29 5z m-1679 -44 c-15 -15 -24 -6
-16 16 5 12 10 14 17 7 8 -8 8 -14 -1 -23z m18 -47 c0 -6 -4 -13 -10 -16 -5
-3 -10 1 -10 9 0 9 5 16 10 16 6 0 10 -4 10 -9z m40 -92 c0 -5 -7 -6 -15 -3
-8 4 -15 10 -15 15 0 5 -9 9 -20 9 -23 0 -26 10 -8 28 10 10 17 6 35 -14 13
-15 23 -31 23 -35z m-100 -5 c0 -8 -7 -14 -15 -14 -15 0 -21 21 -9 33 10 9 24
-2 24 -19z m575 -51 c-7 -17 -8 -16 -17 4 -6 12 -7 30 -3 40 7 17 8 16 17 -4
6 -12 7 -30 3 -40z m-485 37 c21 -13 5 -24 -40 -25 -22 -1 -40 0 -40 1 0 31
47 45 80 24z m77 -13 c-2 -6 7 -27 20 -46 13 -18 23 -42 23 -52 0 -19 -17 -35
-27 -26 -9 10 -41 136 -35 141 8 9 23 -5 19 -17z m-217 -12 c7 -8 21 -15 31
-15 17 0 35 -33 31 -57 -5 -23 18 -14 27 11 14 35 41 42 41 9 0 -23 3 -25 28
-20 28 6 30 3 59 -73 31 -83 30 -110 -8 -110 -12 0 -23 -10 -29 -25 -8 -20
-16 -25 -44 -25 -42 0 -54 -15 -26 -30 11 -6 18 -15 15 -20 -3 -5 0 -18 7 -29
14 -23 9 -31 -23 -35 -35 -3 -64 -22 -50 -31 9 -5 9 -10 1 -20 -7 -8 -7 -15
-1 -19 5 -4 12 -2 16 4 3 5 16 8 29 4 17 -4 25 1 36 23 7 15 14 31 14 35 1 4
7 13 14 20 6 6 12 20 12 30 0 10 7 18 16 18 9 0 27 11 40 25 23 25 54 34 54
15 0 -5 41 -96 90 -202 50 -106 90 -204 90 -219 0 -14 -15 -46 -34 -70 -18
-24 -93 -131 -166 -237 l-132 -194 -20 33 c-11 18 -20 44 -21 58 -1 14 -6 29
-10 32 -4 3 -9 19 -10 35 -1 16 -6 32 -11 36 -6 4 -5 28 3 62 11 48 10 64 -4
112 -12 43 -13 59 -4 70 13 16 4 64 -12 64 -6 0 -8 9 -4 20 4 11 2 20 -4 20
-15 0 -14 16 2 32 17 17 28 56 16 63 -4 3 -6 12 -2 20 3 9 -1 15 -11 15 -9 0
-16 6 -16 13 0 6 -9 1 -19 -12 -11 -15 -21 -20 -25 -13 -4 6 -13 9 -22 5 -10
-4 -12 -9 -4 -18 5 -6 6 -15 2 -19 -4 -4 -1 -6 7 -4 20 4 33 -58 15 -73 -7 -6
-19 -7 -26 -3 -7 4 -3 -4 10 -18 23 -25 23 -25 3 -31 -32 -8 -29 -60 4 -75 14
-6 25 -18 25 -26 0 -16 -43 -30 -48 -16 -2 6 -8 10 -14 10 -6 0 -16 8 -23 17
-11 15 -12 6 -8 -49 3 -37 3 -75 -1 -84 -6 -17 -8 -17 -24 -1 -9 10 -17 23
-18 30 0 6 -2 25 -2 42 -2 22 -5 26 -14 17 -8 -8 -15 -9 -25 -1 -15 13 -18 65
-3 74 16 10 12 35 -6 35 -11 0 -14 6 -9 22 6 17 4 20 -9 15 -11 -5 -16 -1 -16
13 0 21 -24 27 -35 10 -4 -6 -3 -10 2 -9 20 3 24 -2 13 -16 -11 -13 -15 -13
-22 -3 -6 9 -8 7 -7 -7 2 -24 -10 -55 -22 -55 -4 0 -13 19 -20 43 -6 23 -16
53 -23 66 -8 19 -8 25 2 28 6 3 12 11 12 20 0 9 8 13 23 11 12 -2 21 -9 19
-16 -4 -22 25 -44 45 -34 10 5 23 7 30 5 6 -2 14 5 18 15 4 16 14 20 45 18 23
0 40 -6 40 -13 0 -6 5 -15 11 -18 7 -5 9 6 7 31 -2 31 -7 38 -20 36 -11 -2
-18 3 -18 13 0 27 -1 30 -22 52 -15 17 -25 20 -34 12 -8 -6 -14 -6 -18 0 -7
11 27 49 59 67 11 6 20 20 21 30 1 33 14 74 24 74 6 0 6 9 0 25 -7 20 -6 25 5
25 8 0 15 5 15 11 0 12 25 39 37 39 4 1 22 19 38 40 17 21 35 39 41 40 13 0
14 30 1 30 -5 0 -7 7 -3 15 8 23 -15 65 -36 65 -11 0 -18 7 -18 19 0 10 -7 24
-15 31 -8 7 -15 16 -15 21 0 14 26 10 40 -6z m716 -200 c42 -104 49 -142 18
-100 -34 45 -96 185 -90 200 12 32 28 9 72 -100z m598 79 c4 -11 -10 -36 -41
-73 -81 -95 -224 -237 -221 -218 4 23 230 306 244 307 7 0 15 -7 18 -16z
m-1360 -13 c3 -5 -1 -14 -9 -21 -13 -10 -15 -9 -15 9 0 21 14 28 24 12z m329
-16 c31 -29 34 -40 11 -49 -26 -10 -32 -7 -43 25 -20 57 -11 63 32 24z m-413
-1 c0 -8 -5 -12 -10 -9 -6 4 -8 11 -5 16 9 14 15 11 15 -7z m57 -36 c35 -25
42 -38 18 -38 -8 0 -15 4 -15 10 0 5 -7 7 -16 3 -8 -3 -13 -11 -10 -18 2 -7
-6 -22 -20 -34 -25 -22 -64 -28 -64 -10 0 5 -5 7 -10 4 -6 -4 -8 -10 -5 -15
10 -16 -13 -47 -50 -69 -41 -24 -56 -17 -69 32 -6 26 -5 27 25 22 36 -7 63 15
81 65 10 31 22 38 33 20 12 -19 33 -10 45 20 7 17 15 30 18 30 3 0 21 -10 39
-22z m499 -248 c83 -178 108 -250 86 -250 -16 0 -77 101 -136 225 -79 166 -81
172 -66 201 8 13 17 21 21 17 4 -5 47 -91 95 -193z m1142 178 c16 -16 15 -28
0 -28 -22 0 -41 17 -34 29 9 14 19 14 34 -1z m-1718 -48 c0 -5 -2 -10 -4 -10
-3 0 -8 5 -11 10 -3 6 -1 10 4 10 6 0 11 -4 11 -10z m1580 -95 c10 -22 21 -71
25 -109 5 -59 4 -68 -10 -63 -12 5 -15 -3 -15 -48 0 -46 3 -55 18 -55 19 -1
73 -29 55 -30 -6 0 -14 -9 -18 -19 -3 -11 -14 -22 -23 -24 -13 -3 -11 -6 9
-15 28 -11 47 -52 24 -52 -11 0 -13 -25 -11 -115 1 -63 -1 -115 -6 -115 -12 0
-10 -34 4 -48 10 -10 10 -14 0 -20 -12 -8 -34 -102 -23 -102 3 0 -1 -6 -9 -13
-18 -14 -58 -105 -74 -167 -12 -47 -35 -90 -48 -90 -10 0 -330 639 -326 650
10 28 402 501 406 489 2 -8 12 -32 22 -54z m-90 36 c0 -13 -29 -35 -37 -28 -7
8 15 37 28 37 5 0 9 -4 9 -9z m-1490 -10 c0 -11 -27 -33 -59 -48 -14 -6 -21
-12 -15 -12 6 -1 9 -12 7 -26 -4 -20 -10 -24 -32 -21 -25 3 -27 0 -28 -37 -1
-22 -9 -47 -17 -56 -21 -20 -29 -9 -16 23 5 15 7 33 3 39 -19 30 15 78 90 126
33 21 67 28 67 12z m1750 -11 c0 -5 -5 -10 -11 -10 -5 0 -7 5 -4 10 3 6 8 10
11 10 2 0 4 -4 4 -10z m8 -42 c16 -16 15 -28 -3 -28 -8 0 -15 -5 -15 -10 0 -6
8 -10 17 -8 11 2 19 -5 21 -17 2 -11 11 -27 19 -37 8 -9 10 -19 5 -22 -13 -8
-62 16 -62 31 0 6 -5 13 -11 15 -16 5 -22 70 -7 80 17 10 22 10 36 -4z m-338
-15 c-1 -14 -27 -43 -39 -43 -15 0 -14 10 6 32 16 18 33 24 33 11z m-236 -18
c-4 -8 -13 -15 -21 -15 -13 0 -13 3 -3 15 7 8 16 15 21 15 5 0 6 -7 3 -15z
m-1434 -85 c0 -25 -4 -30 -25 -30 -29 0 -30 3 -9 35 22 33 34 31 34 -5z m180
-31 c0 -5 -7 -9 -15 -9 -15 0 -20 12 -9 23 8 8 24 -1 24 -14z m-180 -29 c0
-11 -7 -20 -15 -20 -18 0 -19 12 -3 28 16 16 18 15 18 -8z m440 -20 c0 -5 -9
-10 -21 -10 -11 0 -17 5 -14 10 3 6 13 10 21 10 8 0 14 -4 14 -10z m1424 -15
c3 -9 0 -15 -9 -15 -8 0 -15 7 -15 15 0 8 4 15 9 15 5 0 11 -7 15 -15z m194
-73 c3 -44 -4 -50 -39 -32 -23 13 -27 52 -4 44 11 -4 15 0 15 16 0 40 25 15
28 -28z m33 -15 c-13 -13 -26 -3 -16 12 3 6 11 8 17 5 6 -4 6 -10 -1 -17z
m-115 -22 c3 -8 -1 -22 -11 -31 -20 -21 -25 -16 -18 19 6 29 20 36 29 12z m52
-33 c2 -7 -2 -10 -12 -6 -9 3 -16 11 -16 16 0 13 23 5 28 -10z m-1828 -21 c0
-15 -28 -33 -40 -26 -8 5 -8 11 1 21 13 15 39 19 39 5z m1825 -22 c6 -17 9
-18 16 -8 4 7 12 10 16 5 4 -4 0 -14 -10 -21 -13 -9 -17 -20 -12 -34 8 -25
-10 -28 -20 -3 -12 29 -16 82 -6 82 5 0 13 -10 16 -21z m-1915 -51 c0 -6 11
-34 24 -62 32 -69 40 -96 27 -96 -6 0 -11 -9 -11 -21 0 -15 -4 -19 -16 -15
-13 5 -15 1 -10 -19 5 -18 3 -23 -7 -19 -8 3 -20 -2 -27 -11 -20 -24 -39 -18
-38 13 0 15 -4 38 -10 52 -12 33 -4 90 14 90 8 0 14 -4 14 -9 0 -5 8 -7 19 -4
13 3 20 -2 25 -21 3 -14 11 -26 16 -26 15 0 12 15 -9 41 -13 16 -17 34 -14 52
3 16 1 27 -6 27 -6 0 -11 12 -11 26 0 14 4 23 10 19 6 -3 10 -11 10 -17z m300
2 c0 -5 -5 -10 -11 -10 -5 0 -7 5 -4 10 3 6 8 10 11 10 2 0 4 -4 4 -10z m-30
-14 c0 -3 -4 -8 -10 -11 -5 -3 -10 -1 -10 4 0 6 5 11 10 11 6 0 10 -2 10 -4z
m-130 -31 c0 -8 -6 -15 -14 -15 -17 0 -28 14 -19 24 12 12 33 6 33 -9z m121
-18 c-13 -13 -26 -3 -16 12 3 6 11 8 17 5 6 -4 6 -10 -1 -17z m2024 13 c3 -5
1 -10 -4 -10 -6 0 -11 5 -11 10 0 6 2 10 4 10 3 0 8 -4 11 -10z m-933 -211
c59 -112 108 -210 108 -216 0 -33 -23 -1 -102 140 -139 246 -161 296 -124 284
6 -2 59 -95 118 -208z m560 190 c17 -9 18 -13 7 -20 -21 -13 -32 -11 -26 5 3
8 1 17 -6 20 -7 2 -8 5 -4 5 5 1 18 -4 29 -10z m-1758 -24 c4 -11 19 -14 56
-13 60 3 75 -8 60 -46 -5 -15 -10 -38 -10 -52 0 -13 -3 -24 -7 -24 -5 0 -8
-19 -8 -42 0 -37 -3 -43 -22 -46 -14 -2 -27 4 -34 16 -7 11 -19 18 -26 15 -7
-3 -13 2 -13 11 0 10 -9 16 -25 16 -19 0 -25 5 -25 21 0 11 5 17 10 14 22 -14
28 7 13 45 -13 33 -14 44 -3 70 14 33 25 38 34 15z m1848 -50 c0 -5 -5 -11
-11 -13 -6 -2 -11 4 -11 13 0 9 5 15 11 13 6 -2 11 -8 11 -13z m-1662 -5 c0
-5 -4 -10 -10 -10 -5 0 -10 5 -10 10 0 6 5 10 10 10 6 0 10 -4 10 -10z m893
-161 c38 -89 65 -169 62 -177 -9 -24 -24 -3 -104 145 -82 151 -89 188 -36 192
6 1 41 -72 78 -160z m-893 110 c0 -10 -4 -19 -10 -19 -5 0 -10 12 -10 26 0 14
4 23 10 19 6 -3 10 -15 10 -26z m506 15 c-3 -9 -6 -18 -6 -20 0 -2 -7 -4 -15
-4 -13 0 -14 4 -5 20 13 24 35 27 26 4z m1073 -16 c31 -33 31 -33 8 -40 -40
-11 -47 -8 -47 17 0 14 -7 28 -15 31 -21 9 -19 24 4 24 11 0 34 -15 50 -32z
m81 5 c0 -16 -5 -35 -10 -43 -8 -12 -10 -11 -10 8 0 13 -6 22 -15 22 -13 0
-14 4 -5 20 16 30 40 25 40 -7z m-1695 -34 c5 -16 10 -18 20 -9 8 7 19 9 25 5
15 -9 12 -45 -4 -45 -22 0 -28 -17 -14 -39 10 -16 9 -25 -1 -44 -12 -22 -11
-27 8 -46 26 -26 26 -33 2 -55 -11 -10 -18 -23 -15 -30 3 -7 -10 -32 -29 -57
-18 -24 -41 -57 -51 -72 -16 -27 -28 -31 -28 -10 1 4 -7 16 -16 27 -16 18 -16
18 6 12 16 -6 22 -3 22 8 0 9 -6 15 -12 14 -7 -2 -12 2 -11 8 1 7 -6 19 -17
29 -10 9 -16 23 -13 31 6 17 53 19 53 2 0 -6 6 -3 14 8 13 17 17 17 37 6 19
-12 21 -12 15 3 -3 9 -9 28 -12 41 -4 14 -13 24 -23 23 -10 0 -11 -2 -3 -6 14
-5 17 -33 3 -33 -17 0 -41 43 -41 72 0 32 23 38 39 11 17 -31 23 -7 12 52 -13
71 -5 141 15 124 7 -6 16 -20 19 -30z m364 -40 c-51 -72 -65 -83 -55 -43 11
44 56 104 78 104 16 0 13 -9 -23 -61z m-589 -16 c0 -7 -5 -13 -10 -13 -6 0 -3
-11 6 -25 13 -20 13 -25 3 -25 -10 -1 -8 -4 4 -11 21 -12 23 -39 2 -39 -9 0
-20 11 -25 25 -9 23 -21 30 -44 26 -10 -2 -26 18 -26 33 0 4 9 6 20 3 22 -6
27 12 9 30 -8 8 -1 11 25 10 22 -1 36 -6 36 -14z m1920 12 c0 -12 -24 -55 -32
-55 -13 0 -9 48 5 53 16 7 27 8 27 2z m-1826 -66 c-9 -15 -24 10 -17 29 5 12
7 12 15 -2 5 -9 6 -21 2 -27z m566 16 c0 -25 -31 -65 -50 -65 -14 0 -13 6 13
50 25 46 37 50 37 15z m382 -158 c94 -160 219 -388 231 -421 5 -11 -1 -18 -21
-22 -15 -4 -31 -12 -37 -19 -10 -12 -40 -21 -104 -30 -19 -3 -41 -11 -49 -17
-7 -6 -52 -13 -100 -15 -48 -2 -88 -8 -90 -13 -4 -10 -64 -2 -72 10 -3 4 -20
12 -39 18 -29 10 -37 10 -54 -5 -19 -17 -19 -17 -13 3 5 16 0 26 -21 40 -16
10 -34 17 -40 16 -7 -2 -13 5 -13 15 0 9 -19 36 -41 59 l-41 42 191 257 c105
141 197 255 204 253 7 -3 56 -79 109 -171z m688 133 c0 -11 -4 -20 -9 -20 -11
0 -22 26 -14 34 12 12 23 5 23 -14z m-1871 -26 c-15 -18 -25 -18 -33 2 -9 24
3 35 25 23 16 -8 18 -13 8 -25z m1938 17 c-4 -17 -2 -18 14 -8 10 6 19 9 21 7
20 -31 35 -70 28 -70 -6 0 -10 4 -10 8 0 4 -13 12 -28 18 -23 9 -31 8 -38 -2
-5 -9 -14 -11 -22 -6 -10 7 -9 15 5 40 20 35 38 43 30 13z m-1677 -14 c0 -15
-10 -26 -31 -36 -42 -18 -48 -6 -14 29 34 36 45 38 45 7z m-150 -11 c0 -8 -5
-18 -10 -21 -6 -4 -9 -14 -8 -23 2 -9 -5 -18 -16 -20 -13 -3 -16 0 -10 10 6
10 5 10 -9 -1 -15 -12 -17 -11 -17 12 0 18 4 25 14 21 8 -3 16 3 19 15 6 24
37 29 37 7z m55 -66 c7 -23 -1 -40 -20 -40 -9 0 -13 11 -13 30 1 34 23 41 33
10z m1736 -23 c-9 -9 -14 -8 -21 3 -16 24 -11 31 11 19 16 -8 18 -14 10 -22z
m-63 5 c2 -7 -3 -12 -12 -12 -9 0 -16 7 -16 16 0 17 22 14 28 -4z m142 -1 c13
-25 13 -58 0 -66 -17 -10 -60 23 -60 45 0 11 7 20 15 20 8 0 15 5 15 10 0 17
19 11 30 -9z m-1876 -7 c9 -22 -3 -32 -14 -14 -12 19 -12 30 -1 30 5 0 12 -7
15 -16z m1700 -49 c-7 -17 -20 -20 -28 -6 -7 10 3 21 20 21 8 0 11 -6 8 -15z
m-236 -42 c49 -77 67 -122 55 -134 -11 -11 -54 57 -87 136 -19 44 -19 45 -7
45 5 0 23 -21 39 -47z m-1493 27 c3 -5 -1 -10 -9 -10 -8 0 -18 5 -21 10 -3 6
1 10 9 10 8 0 18 -4 21 -10z m2105 -30 c0 -5 -5 -10 -11 -10 -5 0 -7 5 -4 10
3 6 8 10 11 10 2 0 4 -4 4 -10z m-245 -10 c3 -5 2 -10 -4 -10 -5 0 -13 5 -16
10 -3 6 -2 10 4 10 5 0 13 -4 16 -10z m5 -24 c0 -3 -4 -8 -10 -11 -5 -3 -10
-1 -10 4 0 6 5 11 10 11 6 0 10 -2 10 -4z m-105 -29 c0 -7 9 -12 20 -12 13 0
19 -7 19 -18 -1 -9 5 -17 13 -17 21 0 10 -24 -13 -28 -11 -2 -31 10 -48 27
-24 25 -26 32 -16 51 11 21 25 20 25 -3z m-1648 -14 c2 -6 -5 -14 -17 -18 -26
-8 -33 -3 -24 19 7 19 35 18 41 -1z m1558 -3 c3 -5 1 -10 -4 -10 -6 0 -11 5
-11 10 0 6 2 10 4 10 3 0 8 -4 11 -10z m319 -21 c-3 -5 -10 -7 -15 -3 -5 3 -7
10 -3 15 3 5 10 7 15 3 5 -3 7 -10 3 -15z m-264 -34 c0 -8 7 -11 20 -8 18 5
20 0 20 -36 0 -34 -3 -41 -20 -41 -12 0 -20 -7 -20 -16 0 -9 -6 -14 -12 -12
-17 6 -40 52 -28 56 5 2 4 11 -2 22 -10 15 -9 23 6 39 19 21 36 20 36 -4z m80
-30 c0 -8 -7 -15 -16 -15 -14 0 -14 3 -4 15 7 8 14 15 16 15 2 0 4 -7 4 -15z
m-1660 -10 c0 -8 -6 -15 -14 -15 -17 0 -28 14 -19 24 12 12 33 6 33 -9z m1444
-20 c3 -8 1 -15 -4 -15 -6 0 -10 7 -10 15 0 8 2 15 4 15 2 0 6 -7 10 -15z m31
-45 c3 -5 1 -10 -4 -10 -6 0 -11 5 -11 10 0 6 2 10 4 10 3 0 8 -4 11 -10z
m-1045 -96 c8 -19 15 -24 28 -19 35 15 47 11 46 -15 -1 -14 6 -30 15 -37 9 -7
12 -13 6 -13 -5 0 -4 -4 4 -9 12 -7 12 -13 3 -24 -7 -7 -9 -17 -5 -21 3 -3 14
5 23 20 10 14 21 26 25 26 16 0 24 -27 12 -41 -10 -12 -9 -13 10 -3 31 17 33
16 33 -18 0 -30 17 -77 35 -96 17 -18 55 -24 55 -8 0 8 -6 11 -15 8 -9 -4 -15
-1 -15 7 0 22 17 42 29 35 6 -4 11 -1 11 8 0 12 11 15 47 13 44 -2 47 -4 56
-37 l10 -35 11 28 c9 26 36 38 36 16 0 -6 8 -8 18 -5 14 5 18 0 20 -21 1 -15
7 -32 12 -37 14 -14 12 -29 -3 -23 -7 3 -21 -1 -31 -9 -19 -13 -71 -9 -93 8
-7 6 -23 3 -44 -7 -25 -13 -37 -15 -56 -6 -30 14 -63 14 -63 1 0 -5 -4 -10
-10 -10 -5 0 -10 7 -10 15 0 8 -7 15 -15 15 -8 0 -15 4 -15 9 0 4 -11 6 -25 3
-15 -2 -25 0 -25 7 0 6 -5 11 -11 11 -6 0 -8 -8 -5 -17 6 -19 -9 -52 -18 -42
-3 3 -7 16 -9 30 -2 13 -11 25 -20 27 -12 3 -15 -1 -10 -13 5 -14 2 -16 -18
-10 -32 10 -34 12 -20 29 9 11 7 15 -13 20 -13 3 -31 4 -39 1 -7 -3 -20 1 -27
10 -11 13 -11 21 -2 36 17 26 5 42 -24 35 -33 -9 -45 21 -18 43 10 9 20 22 22
29 2 13 73 112 79 112 2 0 8 -12 13 -26z m1184 -19 c-4 -8 -10 -15 -15 -15 -5
0 -9 7 -9 15 0 8 7 15 15 15 9 0 12 -6 9 -15z m79 9 c9 -10 -4 -34 -18 -34
-17 0 -28 17 -20 30 7 11 28 13 38 4z m127 -24 c0 -5 -7 -10 -16 -10 -8 0 -12
5 -9 10 3 6 10 10 16 10 5 0 9 -4 9 -10z m-53 -71 c-1 -22 -27 -26 -27 -4 0 8
-5 15 -11 15 -8 0 -8 5 1 15 16 19 39 3 37 -26z m-517 -34 c9 6 40 -67 33 -77
-8 -14 -23 -9 -23 7 0 18 -17 20 -23 3 -4 -10 -7 -10 -18 0 -12 11 -12 14 0
22 12 7 12 11 2 24 -7 8 -19 12 -27 9 -8 -3 -14 1 -14 10 0 13 6 14 31 7 18
-5 35 -7 39 -5z m-199 -36 c22 -15 29 -17 29 -6 0 9 13 14 43 14 39 0 43 -2
42 -26 0 -14 -6 -36 -13 -48 -11 -21 -11 -23 7 -23 11 0 22 -4 25 -9 7 -10
-27 -21 -68 -21 -17 0 -40 -10 -52 -21 -13 -12 -30 -19 -38 -16 -23 9 -20 27
4 27 11 0 20 6 20 14 0 8 -8 13 -17 12 -17 -1 -19 4 -22 50 -1 14 -10 24 -26
28 -25 7 -32 20 -16 31 6 3 14 -3 20 -12 10 -17 11 -16 17 5 8 27 9 27 45 1z
m-766 -19 c3 -5 1 -10 -4 -10 -6 0 -11 5 -11 10 0 6 2 10 4 10 3 0 8 -4 11
-10z m1215 -29 c0 -14 -18 -23 -31 -15 -8 4 -7 9 2 15 18 11 29 11 29 0z
m-300 -11 c0 -5 -5 -10 -11 -10 -5 0 -7 5 -4 10 3 6 8 10 11 10 2 0 4 -4 4
-10z m45 -10 c-3 -5 -10 -10 -16 -10 -5 0 -9 5 -9 10 0 6 7 10 16 10 8 0 12
-4 9 -10z m-260 -30 c3 -5 1 -10 -4 -10 -6 0 -11 5 -11 10 0 6 2 10 4 10 3 0
8 -4 11 -10z m523 -9 c3 -8 -1 -12 -9 -9 -7 2 -15 10 -17 17 -3 8 1 12 9 9 7
-2 15 -10 17 -17z m-1065 -36 c30 8 87 -13 87 -32 0 -20 -18 -25 -54 -15 -25
7 -37 6 -47 -3 -12 -11 -21 -11 -51 2 -31 12 -38 20 -38 42 0 45 20 55 51 25
20 -19 32 -24 52 -19z m151 14 c14 -7 23 -15 21 -19 -8 -12 -55 2 -55 16 0 17
2 17 34 3z m741 -50 c-3 -4 2 -12 10 -17 12 -6 7 -8 -19 -8 -39 1 -42 6 -25
37 8 16 13 18 25 9 7 -7 11 -16 9 -21z m-550 11 c3 -5 -3 -10 -15 -10 -12 0
-18 5 -15 10 3 6 10 10 15 10 5 0 12 -4 15 -10z m465 -5 c0 -8 -7 -15 -15 -15
-26 0 -18 20 13 29 1 1 2 -6 2 -14z m-1012 -22 c4 -25 0 -27 -26 -14 -9 5 -25
12 -35 15 -29 9 -8 27 26 24 24 -2 33 -8 35 -25z m922 -23 c-18 -11 -24 -6
-16 16 5 14 9 15 19 5 9 -9 9 -14 -3 -21z m-677 5 c1 -5 -6 -11 -15 -13 -11
-2 -18 3 -18 13 0 17 30 18 33 0z m780 0 c-6 -17 -25 -15 -31 3 -2 7 5 12 17
12 14 0 19 -5 14 -15z m-877 -32 c-10 -10 -19 5 -10 18 6 11 8 11 12 0 2 -7 1
-15 -2 -18z m1037 12 c4 -8 2 -17 -3 -20 -6 -4 -10 3 -10 14 0 25 6 27 13 6z
m-325 -7 c15 -15 16 -31 1 -26 -6 2 -10 7 -9 12 1 5 -4 13 -12 17 -7 5 -8 9
-2 9 5 0 15 -5 22 -12z m-318 -8 c0 -5 -4 -10 -10 -10 -5 0 -10 5 -10 10 0 6
5 10 10 10 6 0 10 -4 10 -10z m690 0 c0 -5 -5 -10 -11 -10 -5 0 -7 5 -4 10 3
6 8 10 11 10 2 0 4 -4 4 -10z m-835 -14 c40 -1 42 -36 3 -47 -30 -8 -38 -3
-38 23 0 10 -5 17 -11 16 -6 -2 -14 3 -17 11 -3 11 0 12 14 6 11 -5 33 -9 49
-9z m320 -5 c-15 -15 -65 -25 -65 -13 0 13 17 20 50 21 15 1 20 -3 15 -8z m75
-11 c0 -5 -4 -10 -10 -10 -5 0 -10 5 -10 10 0 6 5 10 10 10 6 0 10 -4 10 -10z
m-482 -23 c3 -12 -4 -17 -22 -17 -24 0 -25 2 -14 20 15 23 31 21 36 -3z m445
9 c3 -12 -30 -32 -39 -24 -11 12 5 40 21 36 9 -2 17 -7 18 -12z m-268 -6 c3
-6 -1 -13 -10 -16 -19 -8 -30 0 -20 15 8 14 22 14 30 1z m-275 -40 c0 -5 -2
-10 -4 -10 -3 0 -8 5 -11 10 -3 6 -1 10 4 10 6 0 11 -4 11 -10z m124 -35 c9
-24 6 -30 -12 -27 -39 7 -44 11 -30 26 17 20 34 20 42 1z"/>
<path d="M1900 3155 c0 -5 5 -17 10 -25 5 -8 10 -10 10 -5 0 6 -5 17 -10 25
-5 8 -10 11 -10 5z"/>
<path d="M1806 3141 c-3 -5 1 -14 9 -21 13 -10 15 -9 15 9 0 21 -14 28 -24 12z"/>
<path d="M1845 3090 c3 -6 0 -13 -8 -16 -9 -3 -13 -13 -10 -25 8 -29 18 -23
30 16 9 29 9 35 -4 35 -8 0 -11 -5 -8 -10z"/>
<path d="M1680 2975 c0 -8 2 -15 4 -15 2 0 6 7 10 15 3 8 1 15 -4 15 -6 0 -10
-7 -10 -15z"/>
<path d="M1733 2935 c-15 -17 -16 -25 -3 -25 5 0 14 9 20 20 12 23 1 26 -17 5z"/>
<path d="M1671 2914 c0 -11 3 -14 6 -6 3 7 2 16 -1 19 -3 4 -6 -2 -5 -13z"/>
<path d="M1697 2879 c4 -15 8 -17 14 -8 8 14 3 29 -11 29 -4 0 -6 -9 -3 -21z"/>
<path d="M1755 2789 c17 -7 38 -18 48 -27 15 -14 17 -13 17 1 0 20 -6 24 -55
31 -38 6 -39 6 -10 -5z"/>
<path d="M1460 2963 c0 -11 3 -14 8 -7 4 6 14 14 22 17 10 4 8 6 -7 6 -16 1
-23 -5 -23 -16z"/>
<path d="M1991 1473 c-15 -13 -18 -22 -11 -33 8 -12 10 -12 10 -1 0 8 8 20 17
27 10 7 15 15 12 18 -3 4 -16 -1 -28 -11z"/>
<path d="M2063 1470 c-13 -5 -23 -14 -23 -20 0 -16 15 -12 35 10 20 22 20 23
-12 10z"/>
<path d="M2025 1389 c-4 -6 -5 -12 -2 -15 2 -3 7 2 10 11 7 17 1 20 -8 4z"/>
<path d="M2160 1305 c0 -8 4 -15 10 -15 5 0 7 7 4 15 -4 8 -8 15 -10 15 -2 0
-4 -7 -4 -15z"/>
<path d="M2748 4053 c7 -3 16 -2 19 1 4 3 -2 6 -13 5 -11 0 -14 -3 -6 -6z"/>
<path d="M2800 4043 c54 -21 120 -41 120 -37 0 10 -86 44 -110 43 -15 0 -19
-3 -10 -6z"/>
<path d="M2360 3802 c0 -10 7 -19 14 -19 11 0 13 5 5 19 -5 10 -12 18 -14 18
-3 0 -5 -8 -5 -18z"/>
<path d="M2446 3681 c-4 -7 -5 -15 -2 -18 9 -9 19 4 14 18 -4 11 -6 11 -12 0z"/>
<path d="M1689 3599 c-15 -28 -6 -33 20 -10 18 15 19 20 6 24 -9 4 -19 -2 -26
-14z"/>
<path d="M2586 3552 c-3 -6 10 -12 29 -14 22 -2 34 0 32 6 -5 14 -53 20 -61 8z"/>
<path d="M1590 3510 c-8 -5 -11 -12 -8 -16 4 -3 14 1 23 10 18 17 9 21 -15 6z"/>
<path d="M3626 3337 c3 -10 9 -15 12 -12 3 3 0 11 -7 18 -10 9 -11 8 -5 -6z"/>
<path d="M3646 3290 c3 -14 10 -29 15 -34 14 -16 10 6 -7 34 l-15 25 7 -25z"/>
<path d="M1504 3266 c-10 -8 -17 -17 -14 -19 3 -3 14 1 24 9 11 7 17 16 15 19
-3 3 -14 -2 -25 -9z"/>
<path d="M1447 3186 c-4 -10 -1 -13 8 -9 8 3 12 9 9 14 -7 12 -11 11 -17 -5z"/>
<path d="M3744 2970 c3 -14 11 -54 17 -90 11 -64 29 -104 29 -64 0 29 -29 144
-41 163 -8 13 -9 11 -5 -9z"/>
<path d="M1191 2944 c0 -11 3 -14 6 -6 3 7 2 16 -1 19 -3 4 -6 -2 -5 -13z"/>
<path d="M3807 2585 c2 -82 4 -165 3 -182 0 -18 3 -33 8 -33 11 0 6 281 -6
330 -6 22 -7 -20 -5 -115z"/>
<path d="M3806 2263 c-12 -149 -31 -256 -53 -288 -7 -11 -13 -31 -13 -45 0
-14 -4 -30 -9 -36 -5 -5 -11 -35 -13 -66 -3 -53 -2 -56 15 -41 9 9 17 26 17
37 0 12 7 34 15 50 8 15 15 41 15 56 0 15 7 45 16 65 9 24 18 82 21 149 3 61
8 130 13 154 5 31 4 42 -5 42 -8 0 -15 -26 -19 -77z"/>
<path d="M1195 2142 c-12 -8 -13 -32 -2 -49 13 -20 27 -15 27 10 0 28 -13 48
-25 39z"/>
<path d="M3672 1688 c3 -30 1 -33 -27 -33 -27 0 -34 -7 -68 -75 -29 -57 -36
-79 -29 -95 6 -14 5 -27 -6 -43 -8 -12 -12 -25 -9 -28 3 -3 17 15 32 40 15 26
35 52 45 59 9 6 23 30 30 52 7 22 18 47 25 55 12 15 35 75 35 91 0 5 -7 9 -16
9 -11 0 -14 -8 -12 -32z"/>
<path d="M1310 1642 c6 -13 14 -21 18 -18 3 4 -2 14 -12 24 -18 16 -18 16 -6
-6z"/>
<path d="M3487 1345 c-4 -8 -16 -15 -27 -15 -11 0 -23 -7 -26 -15 -5 -11 -10
-13 -19 -5 -9 8 -18 2 -33 -22 -13 -21 -17 -35 -10 -39 5 -4 -13 -28 -44 -55
-29 -27 -87 -81 -128 -121 -41 -39 -87 -76 -102 -82 -29 -11 -36 -25 -18 -36
5 -3 18 3 30 15 11 11 25 20 30 20 6 0 10 7 10 15 0 10 10 15 30 15 24 0 33 7
50 40 11 22 24 39 28 38 17 -5 112 75 112 94 0 12 8 22 21 25 13 4 19 12 16
23 -3 10 5 20 22 28 25 11 77 79 68 88 -3 3 -7 -2 -10 -11z"/>
<path d="M1800 976 c0 -3 21 -22 46 -42 35 -29 47 -35 54 -24 9 15 -15 37 -63
58 -30 13 -37 14 -37 8z"/>
<path d="M3030 935 c-10 -12 -10 -15 3 -15 8 0 17 7 21 15 3 8 2 15 -3 15 -5
0 -14 -7 -21 -15z"/>
<path d="M2923 900 c-29 -17 -59 -30 -68 -30 -8 0 -15 -4 -15 -9 0 -10 89 13
127 33 14 7 19 16 15 23 -6 9 -22 4 -59 -17z"/>
<path d="M2671 813 c-6 -12 -13 -14 -23 -7 -9 8 -25 7 -53 -2 -22 -7 -35 -13
-30 -14 53 -7 99 -4 113 6 9 8 25 14 34 14 31 0 30 20 -1 20 -18 0 -34 -7 -40
-17z"/>
<path d="M2190 806 c38 -14 46 -13 35 3 -3 6 -21 11 -38 10 l-32 -1 35 -12z"/>
<path d="M2408 803 c-35 -3 -48 -8 -48 -20 0 -11 5 -13 18 -7 9 4 41 8 70 8
45 1 50 3 35 13 -9 7 -19 12 -22 11 -3 -1 -27 -3 -53 -5z"/>
</g>
</svg>
